# xmcd
#
# Track frame offsets:
#	150
#	13094
#	27980
#
# Disc length: 627 seconds
#
# Revision: 0
# Processed by: cddbd v1.5.1PL2 Copyright (c) Steve Scherf et al.
# Submitted via: dBpowerAMP V4.0
#
DISCID=1b027103
DTITLE=Fall - I Can Hear The Grass Grow
DYEAR=2005
DGENRE=Punk
TTITLE0=I Can Hear The Grass Grow
TTITLE1=I Can Hear The Grass Grow - slow version
TTITLE2=Bo Doodak
EXTD=
EXTT0=
EXTT1=
EXTT2=
PLAYORDER=
